<svg width="129" height="36" viewBox="0 0 129 36" fill="none" xmlns="http://www.w3.org/2000/svg">
<path d="M124.222 36H4.77778C2.15119 36 0 33.9739 0 31.5V4.5C0 2.02612 2.15119 0 4.77778 0H124.222C126.849 0 129 2.02612 129 4.5V31.5C129 33.9739 126.849 36 124.222 36Z" fill="black"/>
<path d="M124.222 0.721124C126.434 0.721124 128.234 2.4165 128.234 4.5V31.5C128.234 33.5835 126.434 35.2789 124.222 35.2789H4.77778C2.56567 35.2789 0.765639 33.5835 0.765639 31.5V4.5C0.765639 2.4165 2.56567 0.721124 4.77778 0.721124H124.222ZM124.222 0H4.77778C2.15119 0 0 2.02612 0 4.5V31.5C0 33.9739 2.15119 36 4.77778 36H124.222C126.849 36 129 33.9739 129 31.5V4.5C129 2.02612 126.849 0 124.222 0Z" fill="#A6A6A6"/>
<path d="M9.97123 6.78487C9.69054 7.06162 9.52809 7.49249 9.52809 8.05049V27.954C9.52809 28.512 9.69054 28.9429 9.97123 29.2196L10.0405 29.2804L21.8822 18.1316V17.8684L10.0405 6.71962L9.97123 6.78487Z" fill="url(#paint0_linear_1224_415)"/>
<path d="M25.8251 21.8497L21.8822 18.1316V17.8684L25.8298 14.1502L25.9182 14.1986L30.5933 16.704C31.9275 17.415 31.9275 18.585 30.5933 19.3005L25.9182 21.8014L25.8251 21.8497Z" fill="url(#paint1_linear_1224_415)"/>
<path d="M25.9182 21.8014L21.8822 18L9.97123 29.2196C10.4144 29.6584 11.137 29.7112 11.9588 29.2725L25.9182 21.8014Z" fill="url(#paint2_linear_1224_415)"/>
<path d="M25.9182 14.1986L11.9588 6.7275C11.137 6.29325 10.4144 6.34612 9.97123 6.78487L21.8822 18L25.9182 14.1986Z" fill="url(#paint3_linear_1224_415)"/>
<path d="M45.31 9.21937C45.31 9.97087 45.0712 10.5727 44.6005 11.0216C44.0595 11.5537 43.3547 11.8215 42.4912 11.8215C41.6658 11.8215 40.9611 11.5492 40.383 11.0126C39.8037 10.4681 39.5146 9.79987 39.5146 9C39.5146 8.20012 39.8037 7.53187 40.383 6.99187C40.9611 6.45075 41.6658 6.1785 42.4912 6.1785C42.9021 6.1785 43.2938 6.25837 43.6677 6.40687C44.0403 6.5565 44.3437 6.759 44.5635 7.00875L44.0642 7.4835C43.6808 7.05713 43.1589 6.84675 42.4912 6.84675C41.8892 6.84675 41.3672 7.04475 40.924 7.44412C40.4857 7.84462 40.2659 8.36325 40.2659 9C40.2659 9.63675 40.4857 10.1599 40.924 10.5604C41.3672 10.9552 41.8892 11.1577 42.4912 11.1577C43.1302 11.1577 43.6677 10.9552 44.0917 10.5559C44.3712 10.2915 44.5301 9.927 44.5719 9.46125H42.4912V8.811H45.267C45.3005 8.95162 45.31 9.08775 45.31 9.21937Z" fill="white"/>
<path d="M49.714 6.96487H47.1065V8.67487H49.4572V9.32512H47.1065V11.0351H49.714V11.6977H46.3683V6.30224H49.714V6.96487Z" fill="white"/>
<path d="M52.8219 11.6977H52.0837V6.96487H50.4844V6.30224H54.4224V6.96487H52.8219V11.6977Z" fill="white"/>
<path d="M57.2724 11.6977V6.30224H58.0094V11.6977H57.2724Z" fill="white"/>
<path d="M61.2762 11.6977H60.544V6.96487H58.9386V6.30224H62.8815V6.96487H61.2762V11.6977Z" fill="white"/>
<path d="M70.3372 11.0036C69.7723 11.5492 69.0723 11.8215 68.2374 11.8215C67.3977 11.8215 66.6978 11.5492 66.1328 11.0036C65.569 10.4591 65.2883 9.79087 65.2883 9C65.2883 8.20912 65.569 7.54087 66.1328 6.99637C66.6978 6.45075 67.3977 6.1785 68.2374 6.1785C69.0675 6.1785 69.7675 6.45075 70.3325 7.00087C70.901 7.54987 71.1817 8.21362 71.1817 9C71.1817 9.79087 70.901 10.4591 70.3372 11.0036ZM66.6786 10.5514C67.1039 10.9552 67.6211 11.1577 68.2374 11.1577C68.849 11.1577 69.3709 10.9552 69.7914 10.5514C70.2154 10.1475 70.4304 9.62887 70.4304 9C70.4304 8.37112 70.2154 7.8525 69.7914 7.44862C69.3709 7.04475 68.849 6.84225 68.2374 6.84225C67.6211 6.84225 67.1039 7.04475 66.6786 7.44862C66.2546 7.8525 66.0396 8.37112 66.0396 9C66.0396 9.62887 66.2546 10.1475 66.6786 10.5514Z" fill="white"/>
<path d="M72.2173 11.6977V6.30224H73.1131L75.8986 10.4985H75.9308L75.8986 9.46124V6.30224H76.6355V11.6977H75.8663L72.9495 7.29449H72.9172L72.9495 8.33624V11.6977H72.2173Z" fill="white"/>
<path d="M65.1068 19.5773C62.8624 19.5773 61.0289 21.186 61.0289 23.4056C61.0289 25.6073 62.8624 27.2329 65.1068 27.2329C67.3559 27.2329 69.1894 25.6073 69.1894 23.4056C69.1894 21.186 67.3559 19.5773 65.1068 19.5773ZM65.1068 25.7254C63.8753 25.7254 62.8158 24.768 62.8158 23.4056C62.8158 22.0253 63.8753 21.0848 65.1068 21.0848C66.3382 21.0848 67.4025 22.0253 67.4025 23.4056C67.4025 24.768 66.3382 25.7254 65.1068 25.7254ZM56.2094 19.5773C53.9602 19.5773 52.1315 21.186 52.1315 23.4056C52.1315 25.6073 53.9602 27.2329 56.2094 27.2329C58.4573 27.2329 60.2872 25.6073 60.2872 23.4056C60.2872 21.186 58.4573 19.5773 56.2094 19.5773ZM56.2094 25.7254C54.9767 25.7254 53.9136 24.768 53.9136 23.4056C53.9136 22.0253 54.9767 21.0848 56.2094 21.0848C57.4408 21.0848 58.5003 22.0253 58.5003 23.4056C58.5003 24.768 57.4408 25.7254 56.2094 25.7254ZM45.6218 20.7506V22.3774H49.7462C49.6256 23.2864 49.3031 23.9546 48.8086 24.4204C48.2066 24.9829 47.2689 25.6073 45.6218 25.6073C43.0836 25.6073 41.0961 23.6779 41.0961 21.2873C41.0961 18.8966 43.0836 16.9673 45.6218 16.9673C46.9942 16.9673 47.9928 17.4724 48.7297 18.1271L49.9469 16.9808C48.9161 16.0538 47.5449 15.3416 45.6218 15.3416C42.1412 15.3416 39.216 18.009 39.216 21.2873C39.216 24.5655 42.1412 27.2329 45.6218 27.2329C47.5031 27.2329 48.9161 26.6524 50.0269 25.5634C51.1652 24.4913 51.52 22.9838 51.52 21.7665C51.52 21.3885 51.4865 21.0409 51.4268 20.7506H45.6218ZM88.9156 22.0118C88.58 21.1556 87.5444 19.5773 85.435 19.5773C83.3447 19.5773 81.6044 21.1286 81.6044 23.4056C81.6044 25.5499 83.3268 27.2329 85.6357 27.2329C87.5026 27.2329 88.58 26.1608 89.0231 25.5364L87.6376 24.6668C87.1753 25.3035 86.5458 25.7254 85.6357 25.7254C84.7315 25.7254 84.0829 25.335 83.6672 24.5655L89.1031 22.4471L88.9156 22.0118ZM83.3734 23.2864C83.3268 21.8104 84.5905 21.0544 85.4959 21.0544C86.2054 21.0544 86.8074 21.3885 87.0081 21.8666L83.3734 23.2864ZM78.9551 27H80.742V15.75H78.9551V27ZM76.0288 20.43H75.969C75.5677 19.9823 74.8021 19.5773 73.8322 19.5773C71.7969 19.5773 69.9359 21.2603 69.9359 23.418C69.9359 25.5634 71.7969 27.2329 73.8322 27.2329C74.8021 27.2329 75.5677 26.8245 75.969 26.3633H76.0288V26.9123C76.0288 28.3759 75.1986 29.1623 73.8596 29.1623C72.7679 29.1623 72.0907 28.4198 71.8112 27.7954L70.2572 28.4063C70.7051 29.421 71.8912 30.6698 73.8596 30.6698C75.9547 30.6698 77.7225 29.5088 77.7225 26.6839V19.8101H76.0288V20.43ZM73.9851 25.7254C72.7536 25.7254 71.7228 24.7545 71.7228 23.418C71.7228 22.0691 72.7536 21.0848 73.9851 21.0848C75.1986 21.0848 76.1554 22.0691 76.1554 23.418C76.1554 24.7545 75.1986 25.7254 73.9851 25.7254ZM97.2815 15.75H93.0078V27H94.7899V22.7374H97.2815C99.2607 22.7374 101.202 21.3885 101.202 19.2431C101.202 17.0989 99.2559 15.75 97.2815 15.75ZM97.3281 21.1725H94.7899V17.3149H97.3281C98.6587 17.3149 99.4184 18.3555 99.4184 19.2431C99.4184 20.1139 98.6587 21.1725 97.3281 21.1725ZM108.344 19.5559C107.057 19.5559 105.718 20.0914 105.167 21.2783L106.749 21.9026C107.089 21.2783 107.715 21.0758 108.377 21.0758C109.301 21.0758 110.239 21.5989 110.253 22.5225V22.6406C109.931 22.4651 109.24 22.2053 108.391 22.2053C106.688 22.2053 104.952 23.0884 104.952 24.7365C104.952 26.244 106.347 27.2149 107.916 27.2149C109.115 27.2149 109.777 26.7053 110.192 26.1124H110.253V26.982H111.974V22.6665C111.974 20.6719 110.393 19.5559 108.344 19.5559ZM108.129 25.7209C107.547 25.7209 106.734 25.4486 106.734 24.768C106.734 23.8973 107.747 23.5631 108.624 23.5631C109.409 23.5631 109.777 23.7263 110.253 23.9411C110.113 24.9829 109.161 25.7209 108.129 25.7209ZM118.245 19.8023L116.197 24.6791H116.136L114.018 19.8023H112.096L115.278 26.6175L113.463 30.4099H115.325L120.228 19.8023H118.245ZM102.181 27H103.968V15.75H102.181V27Z" fill="white"/>
<defs>
<linearGradient id="paint0_linear_1224_415" x1="118.021" y1="1.78575" x2="111.224" y2="49.0106" gradientUnits="userSpaceOnUse">
<stop stop-color="#00A0FF"/>
<stop offset="0.0066" stop-color="#00A1FF"/>
<stop offset="0.2601" stop-color="#00BEFF"/>
<stop offset="0.5122" stop-color="#00D2FF"/>
<stop offset="0.7604" stop-color="#00DFFF"/>
<stop offset="1" stop-color="#00E3FF"/>
</linearGradient>
<linearGradient id="paint1_linear_1224_415" x1="138.785" y1="18.0059" x2="-168.335" y2="18.0059" gradientUnits="userSpaceOnUse">
<stop stop-color="#FFE000"/>
<stop offset="0.4087" stop-color="#FFBD00"/>
<stop offset="0.7754" stop-color="#FFA500"/>
<stop offset="1" stop-color="#FF9C00"/>
</linearGradient>
<linearGradient id="paint2_linear_1224_415" x1="111.247" y1="42.4264" x2="70.4664" y2="155.053" gradientUnits="userSpaceOnUse">
<stop stop-color="#FF3A44"/>
<stop offset="1" stop-color="#C31162"/>
</linearGradient>
<linearGradient id="paint3_linear_1224_415" x1="-24.2537" y1="-55.5016" x2="-6.03265" y2="-5.196" gradientUnits="userSpaceOnUse">
<stop stop-color="#32A071"/>
<stop offset="0.0685" stop-color="#2DA771"/>
<stop offset="0.4762" stop-color="#15CF74"/>
<stop offset="0.8009" stop-color="#06E775"/>
<stop offset="1" stop-color="#00F076"/>
</linearGradient>
</defs>
</svg>
