<svg width="18" height="18" viewBox="0 0 18 18" fill="none" xmlns="http://www.w3.org/2000/svg">
<path d="M2.25 13.5C1.8375 13.5 1.48425 13.353 1.19025 13.059C0.896251 12.765 0.749501 12.412 0.750001 12V3C0.750001 2.5875 0.897001 2.23425 1.191 1.94025C1.485 1.64625 1.838 1.4995 2.25 1.5H14.25C14.6625 1.5 15.0158 1.647 15.3098 1.941C15.6038 2.235 15.7505 2.588 15.75 3V6.75H14.25V4.5L8.64375 8.00625C8.58125 8.04375 8.5155 8.072 8.4465 8.091C8.3775 8.11 8.312 8.11925 8.25 8.11875C8.1875 8.11875 8.12175 8.1095 8.05275 8.091C7.98375 8.0725 7.91825 8.04425 7.85625 8.00625L2.25 4.5V12H9.75V13.5H2.25ZM8.25 6.75L14.25 3H2.25L8.25 6.75ZM14.25 16.5C13.425 16.5 12.7188 16.2063 12.1313 15.6188C11.5438 15.0313 11.25 14.325 11.25 13.5V10.125C11.25 9.6 11.4313 9.15625 11.7938 8.79375C12.1563 8.43125 12.6 8.25 13.125 8.25C13.65 8.25 14.0938 8.43125 14.4563 8.79375C14.8188 9.15625 15 9.6 15 10.125V12.75C15 12.9625 14.928 13.1408 14.784 13.2848C14.64 13.4288 14.462 13.5005 14.25 13.5C14.0375 13.5 13.8593 13.428 13.7153 13.284C13.5713 13.14 13.4995 12.962 13.5 12.75V10.125C13.5 10.025 13.4625 9.9375 13.3875 9.8625C13.3125 9.7875 13.225 9.75 13.125 9.75C13.025 9.75 12.9375 9.7875 12.8625 9.8625C12.7875 9.9375 12.75 10.025 12.75 10.125V13.5C12.75 13.9125 12.897 14.2658 13.191 14.5598C13.485 14.8538 13.838 15.0005 14.25 15C14.6625 15 15.0158 14.853 15.3098 14.559C15.6038 14.265 15.7505 13.912 15.75 13.5V11.25C15.75 11.0375 15.822 10.8593 15.966 10.7153C16.11 10.5713 16.288 10.4995 16.5 10.5C16.7125 10.5 16.8908 10.572 17.0348 10.716C17.1788 10.86 17.2505 11.038 17.25 11.25V13.5C17.25 14.325 16.9563 15.0313 16.3688 15.6188C15.7813 16.2063 15.075 16.5 14.25 16.5ZM2.25 4.6875V3.6C2.25 3.4625 2.25 3.4625 2.25 3.6V3.58125V4.6875Z" fill="white"/>
</svg>
