<svg width="20" height="20" viewBox="0 0 20 20" fill="none" xmlns="http://www.w3.org/2000/svg">
<path d="M1.80713 2.23998V17.0376C1.80723 17.0697 1.8168 17.1011 1.83465 17.1278C1.85251 17.1545 1.87784 17.1753 1.90747 17.1876C1.93711 17.2 1.96973 17.2033 2.00125 17.1972C2.03276 17.191 2.06177 17.1758 2.08463 17.1532L9.78957 9.63918L2.08463 2.12439C2.06177 2.10185 2.03276 2.08656 2.00125 2.08044C1.96973 2.07432 1.93711 2.07764 1.90747 2.08998C1.87784 2.10233 1.85251 2.12315 1.83465 2.14983C1.8168 2.17652 1.80723 2.20788 1.80713 2.23998ZM13.0202 6.55163L3.35919 1.229L3.35316 1.22561C3.18674 1.13524 3.02859 1.36041 3.1649 1.49144L10.7381 8.73287L13.0202 6.55163ZM3.16565 17.7869C3.02859 17.918 3.18674 18.1431 3.35392 18.0527L3.35994 18.0494L13.0202 12.7267L10.7381 10.5447L3.16565 17.7869ZM16.9203 8.69785L14.2225 7.21206L11.6858 9.63918L14.2225 12.0652L16.9203 10.5805C17.6542 10.175 17.6542 9.10337 16.9203 8.69785Z" fill="#797979"/>
</svg>
