<svg width="212" height="60" viewBox="0 0 212 60" fill="none" xmlns="http://www.w3.org/2000/svg">
<path d="M204.148 60H7.85185C3.5353 60 0 56.6231 0 52.5V7.5C0 3.37688 3.5353 4.76837e-06 7.85185 4.76837e-06H204.148C208.465 4.76837e-06 212 3.37688 212 7.5V52.5C212 56.6231 208.465 60 204.148 60Z" fill="black"/>
<path d="M204.148 1.20188C207.784 1.20188 210.742 4.0275 210.742 7.5V52.5C210.742 55.9725 207.784 58.7981 204.148 58.7981H7.85185C4.21644 58.7981 1.25826 55.9725 1.25826 52.5V7.5C1.25826 4.0275 4.21644 1.20188 7.85185 1.20188H204.148ZM204.148 4.76837e-06H7.85185C3.5353 4.76837e-06 0 3.37688 0 7.5V52.5C0 56.6231 3.5353 60 7.85185 60H204.148C208.465 60 212 56.6231 212 52.5V7.5C212 3.37688 208.465 4.76837e-06 204.148 4.76837e-06Z" fill="#A6A6A6"/>
<path d="M16.3869 11.3083C15.9257 11.7695 15.6587 12.4877 15.6587 13.4177V46.5902C15.6587 47.5202 15.9257 48.2383 16.3869 48.6995L16.5008 48.8008L35.9616 30.2195V29.7808L16.5008 11.1995L16.3869 11.3083Z" fill="url(#paint0_linear_1138_399)"/>
<path d="M42.4414 36.4165L35.9617 30.2196V29.7809L42.4493 23.584L42.5945 23.6646L50.2776 27.8403C52.4702 29.0253 52.4702 30.9753 50.2776 32.1678L42.5945 36.3359L42.4414 36.4165Z" fill="url(#paint1_linear_1138_399)"/>
<path d="M42.5945 36.3357L35.9616 30.0001L16.387 48.6995C17.1152 49.4307 18.3028 49.5188 19.6533 48.7876L42.5945 36.3357Z" fill="url(#paint2_linear_1138_399)"/>
<path d="M42.5945 23.6644L19.6533 11.2125C18.3028 10.4888 17.1152 10.5769 16.387 11.3081L35.9616 30L42.5945 23.6644Z" fill="url(#paint3_linear_1138_399)"/>
<path d="M74.463 15.366C74.463 16.6185 74.0704 17.6216 73.297 18.3697C72.4078 19.2566 71.2496 19.7028 69.8304 19.7028C68.474 19.7028 67.3159 19.2491 66.3658 18.3547C65.4138 17.4472 64.9387 16.3335 64.9387 15.0003C64.9387 13.6672 65.4138 12.5535 66.3658 11.6535C67.3159 10.7516 68.474 10.2979 69.8304 10.2979C70.5057 10.2979 71.1495 10.431 71.7639 10.6785C72.3764 10.9279 72.875 11.2654 73.2362 11.6816L72.4156 12.4729C71.7855 11.7622 70.9277 11.4116 69.8304 11.4116C68.8411 11.4116 67.9833 11.7416 67.255 12.4072C66.5346 13.0747 66.1734 13.9391 66.1734 15.0003C66.1734 16.0616 66.5346 16.9335 67.255 17.601C67.9833 18.2591 68.8411 18.5966 69.8304 18.5966C70.8806 18.5966 71.7639 18.2591 72.4608 17.5935C72.9201 17.1528 73.1812 16.5453 73.2499 15.7691H69.8304V14.6853H74.3923C74.4473 14.9197 74.463 15.1466 74.463 15.366Z" fill="white" stroke="white" stroke-width="0.16" stroke-miterlimit="10"/>
<path d="M81.7004 11.6083H77.4153V14.4583H81.2784V15.542H77.4153V18.392H81.7004V19.4964H76.2021V10.5039H81.7004V11.6083Z" fill="white" stroke="white" stroke-width="0.16" stroke-miterlimit="10"/>
<path d="M86.8081 19.4964H85.595V11.6083H82.9666V10.5039H89.4384V11.6083H86.8081V19.4964Z" fill="white" stroke="white" stroke-width="0.16" stroke-miterlimit="10"/>
<path d="M94.1221 19.4964V10.5039H95.3332V19.4964H94.1221Z" fill="white" stroke="white" stroke-width="0.16" stroke-miterlimit="10"/>
<path d="M100.702 19.4964H99.4986V11.6083H96.8604V10.5039H103.34V11.6083H100.702V19.4964Z" fill="white" stroke="white" stroke-width="0.16" stroke-miterlimit="10"/>
<path d="M115.593 18.3397C114.664 19.2491 113.514 19.7028 112.142 19.7028C110.762 19.7028 109.612 19.2491 108.683 18.3397C107.757 17.4322 107.295 16.3185 107.295 15.0003C107.295 13.6822 107.757 12.5685 108.683 11.661C109.612 10.7516 110.762 10.2979 112.142 10.2979C113.506 10.2979 114.657 10.7516 115.585 11.6685C116.519 12.5835 116.981 13.6897 116.981 15.0003C116.981 16.3185 116.519 17.4322 115.593 18.3397ZM109.58 17.586C110.279 18.2591 111.129 18.5966 112.142 18.5966C113.147 18.5966 114.005 18.2591 114.696 17.586C115.393 16.9128 115.746 16.0485 115.746 15.0003C115.746 13.9522 115.393 13.0879 114.696 12.4147C114.005 11.7416 113.147 11.4041 112.142 11.4041C111.129 11.4041 110.279 11.7416 109.58 12.4147C108.883 13.0879 108.53 13.9522 108.53 15.0003C108.53 16.0485 108.883 16.9128 109.58 17.586Z" fill="white" stroke="white" stroke-width="0.16" stroke-miterlimit="10"/>
<path d="M118.683 19.4964V10.5039H120.155L124.732 17.4977H124.785L124.732 15.7689V10.5039H125.944V19.4964H124.679L119.886 12.1577H119.833L119.886 13.8939V19.4964H118.683Z" fill="white" stroke="white" stroke-width="0.16" stroke-miterlimit="10"/>
<path d="M106.997 32.6287C103.309 32.6287 100.296 35.31 100.296 39.0093C100.296 42.6787 103.309 45.3881 106.997 45.3881C110.693 45.3881 113.707 42.6787 113.707 39.0093C113.707 35.31 110.693 32.6287 106.997 32.6287ZM106.997 42.8756C104.973 42.8756 103.232 41.28 103.232 39.0093C103.232 36.7087 104.973 35.1412 106.997 35.1412C109.021 35.1412 110.77 36.7087 110.77 39.0093C110.77 41.28 109.021 42.8756 106.997 42.8756ZM92.3751 32.6287C88.6788 32.6287 85.6735 35.31 85.6735 39.0093C85.6735 42.6787 88.6788 45.3881 92.3751 45.3881C96.0694 45.3881 99.0766 42.6787 99.0766 39.0093C99.0766 35.31 96.0694 32.6287 92.3751 32.6287ZM92.3751 42.8756C90.3493 42.8756 88.6023 41.28 88.6023 39.0093C88.6023 36.7087 90.3493 35.1412 92.3751 35.1412C94.3989 35.1412 96.14 36.7087 96.14 39.0093C96.14 41.28 94.3989 42.8756 92.3751 42.8756ZM74.9754 34.5843V37.2956H81.7535C81.5552 38.8106 81.0252 39.9243 80.2125 40.7006C79.2232 41.6381 77.6823 42.6787 74.9754 42.6787C70.8041 42.6787 67.5377 39.4631 67.5377 35.4787C67.5377 31.4943 70.8041 28.2787 74.9754 28.2787C77.2308 28.2787 78.8718 29.1206 80.083 30.2118L82.0833 28.3012C80.3892 26.7562 78.1357 25.5693 74.9754 25.5693C69.2553 25.5693 64.448 30.015 64.448 35.4787C64.448 40.9425 69.2553 45.3881 74.9754 45.3881C78.067 45.3881 80.3892 44.4206 82.2148 42.6056C84.0855 40.8187 84.6685 38.3062 84.6685 36.2775C84.6685 35.6475 84.6135 35.0681 84.5154 34.5843H74.9754ZM146.125 36.6862C145.573 35.2593 143.871 32.6287 140.405 32.6287C136.97 32.6287 134.11 35.2143 134.11 39.0093C134.11 42.5831 136.94 45.3881 140.735 45.3881C143.803 45.3881 145.573 43.6012 146.302 42.5606L144.025 41.1112C143.265 42.1725 142.23 42.8756 140.735 42.8756C139.249 42.8756 138.183 42.225 137.5 40.9425L146.433 37.4118L146.125 36.6862ZM137.017 38.8106C136.94 36.3506 139.017 35.0906 140.505 35.0906C141.671 35.0906 142.66 35.6475 142.99 36.4443L137.017 38.8106ZM129.756 45H132.692V26.25H129.756V45ZM124.946 34.05H124.848C124.189 33.3037 122.931 32.6287 121.337 32.6287C117.992 32.6287 114.933 35.4337 114.933 39.03C114.933 42.6056 117.992 45.3881 121.337 45.3881C122.931 45.3881 124.189 44.7075 124.848 43.9387H124.946V44.8537C124.946 47.2931 123.582 48.6037 121.382 48.6037C119.588 48.6037 118.475 47.3662 118.015 46.3256L115.461 47.3437C116.198 49.035 118.147 51.1162 121.382 51.1162C124.825 51.1162 127.73 49.1812 127.73 44.4731V33.0168H124.946V34.05ZM121.588 42.8756C119.564 42.8756 117.87 41.2575 117.87 39.03C117.87 36.7818 119.564 35.1412 121.588 35.1412C123.582 35.1412 125.155 36.7818 125.155 39.03C125.155 41.2575 123.582 42.8756 121.588 42.8756ZM159.873 26.25H152.85V45H155.779V37.8956H159.873C163.126 37.8956 166.316 35.6475 166.316 32.0718C166.316 28.4981 163.118 26.25 159.873 26.25ZM159.95 35.2875H155.779V28.8581H159.95C162.137 28.8581 163.385 30.5925 163.385 32.0718C163.385 33.5231 162.137 35.2875 159.95 35.2875ZM178.054 32.5931C175.938 32.5931 173.738 33.4856 172.833 35.4637L175.432 36.5043C175.991 35.4637 177.02 35.1262 178.107 35.1262C179.627 35.1262 181.168 35.9981 181.191 37.5375V37.7343C180.661 37.4418 179.527 37.0087 178.131 37.0087C175.332 37.0087 172.48 38.4806 172.48 41.2275C172.48 43.74 174.772 45.3581 177.35 45.3581C179.321 45.3581 180.408 44.5087 181.091 43.5206H181.191V44.97H184.02V37.7775C184.02 34.4531 181.421 32.5931 178.054 32.5931ZM177.701 42.8681C176.743 42.8681 175.408 42.4143 175.408 41.28C175.408 39.8287 177.073 39.2718 178.514 39.2718C179.803 39.2718 180.408 39.5437 181.191 39.9018C180.962 41.6381 179.397 42.8681 177.701 42.8681ZM194.325 33.0037L190.959 41.1318H190.859L187.379 33.0037H184.22L189.449 44.3625L186.466 50.6831H189.526L197.584 33.0037H194.325ZM167.926 45H170.862V26.25H167.926V45Z" fill="white"/>
<defs>
<linearGradient id="paint0_linear_1138_399" x1="34.2337" y1="46.9356" x2="9.08656" y2="20.6087" gradientUnits="userSpaceOnUse">
<stop stop-color="#00A0FF"/>
<stop offset="0.0066" stop-color="#00A1FF"/>
<stop offset="0.2601" stop-color="#00BEFF"/>
<stop offset="0.5122" stop-color="#00D2FF"/>
<stop offset="0.7604" stop-color="#00DFFF"/>
<stop offset="1" stop-color="#00E3FF"/>
</linearGradient>
<linearGradient id="paint1_linear_1138_399" x1="53.1327" y1="29.9982" x2="15.1346" y2="29.9982" gradientUnits="userSpaceOnUse">
<stop stop-color="#FFE000"/>
<stop offset="0.4087" stop-color="#FFBD00"/>
<stop offset="0.7754" stop-color="#FFA500"/>
<stop offset="1" stop-color="#FF9C00"/>
</linearGradient>
<linearGradient id="paint2_linear_1138_399" x1="38.9877" y1="26.5559" x2="4.88613" y2="-9.14549" gradientUnits="userSpaceOnUse">
<stop stop-color="#FF3A44"/>
<stop offset="1" stop-color="#C31162"/>
</linearGradient>
<linearGradient id="paint3_linear_1138_399" x1="11.4596" y1="59.7357" x2="26.6875" y2="43.7936" gradientUnits="userSpaceOnUse">
<stop stop-color="#32A071"/>
<stop offset="0.0685" stop-color="#2DA771"/>
<stop offset="0.4762" stop-color="#15CF74"/>
<stop offset="0.8009" stop-color="#06E775"/>
<stop offset="1" stop-color="#00F076"/>
</linearGradient>
</defs>
</svg>
