<svg width="32" height="32" viewBox="0 0 32 32" fill="none" xmlns="http://www.w3.org/2000/svg">
<path d="M15.9998 12.0003C14.939 12.0003 13.9216 12.4218 13.1714 13.1719C12.4213 13.922 11.9998 14.9395 11.9998 16.0003C11.9998 17.0612 12.4213 18.0786 13.1714 18.8288C13.9216 19.5789 14.939 20.0003 15.9998 20.0003C17.0607 20.0003 18.0781 19.5789 18.8283 18.8288C19.5784 18.0786 19.9998 17.0612 19.9998 16.0003C19.9998 14.9395 19.5784 13.922 18.8283 13.1719C18.0781 12.4218 17.0607 12.0003 15.9998 12.0003ZM15.9998 9.33366C17.7679 9.33366 19.4636 10.036 20.7139 11.2863C21.9641 12.5365 22.6665 14.2322 22.6665 16.0003C22.6665 17.7684 21.9641 19.4641 20.7139 20.7144C19.4636 21.9646 17.7679 22.667 15.9998 22.667C14.2317 22.667 12.536 21.9646 11.2858 20.7144C10.0355 19.4641 9.33317 17.7684 9.33317 16.0003C9.33317 14.2322 10.0355 12.5365 11.2858 11.2863C12.536 10.036 14.2317 9.33366 15.9998 9.33366ZM24.6665 9.00033C24.6665 9.44235 24.4909 9.86628 24.1784 10.1788C23.8658 10.4914 23.4419 10.667 22.9998 10.667C22.5578 10.667 22.1339 10.4914 21.8213 10.1788C21.5088 9.86628 21.3332 9.44235 21.3332 9.00033C21.3332 8.5583 21.5088 8.13438 21.8213 7.82181C22.1339 7.50925 22.5578 7.33366 22.9998 7.33366C23.4419 7.33366 23.8658 7.50925 24.1784 7.82181C24.4909 8.13438 24.6665 8.5583 24.6665 9.00033ZM15.9998 5.33366C12.7012 5.33366 12.1625 5.34299 10.6278 5.41099C9.5825 5.46033 8.88117 5.60033 8.2305 5.85366C7.68599 6.05358 7.19372 6.37401 6.7905 6.79099C6.37318 7.19419 6.05231 7.68644 5.85184 8.23099C5.5985 8.88433 5.4585 9.58433 5.4105 10.6283C5.34117 12.1003 5.33317 12.615 5.33317 16.0003C5.33317 19.299 5.3425 19.8377 5.4105 21.3723C5.45984 22.4163 5.59984 23.119 5.85184 23.7683C6.0785 24.3483 6.34517 24.7657 6.78784 25.2083C7.23717 25.6563 7.6545 25.9243 8.22784 26.1457C8.8865 26.4003 9.58784 26.5417 10.6278 26.5897C12.0998 26.659 12.6145 26.667 15.9998 26.667C19.2985 26.667 19.8372 26.6577 21.3718 26.5897C22.4145 26.5403 23.1172 26.4003 23.7678 26.1483C24.3115 25.9474 24.8035 25.6276 25.2078 25.2123C25.6572 24.763 25.9252 24.3457 26.1465 23.7723C26.3998 23.115 26.5412 22.4123 26.5892 21.3723C26.6585 19.9003 26.6665 19.3857 26.6665 16.0003C26.6665 12.7017 26.6572 12.163 26.5892 10.6283C26.5398 9.58566 26.3998 8.88166 26.1465 8.23099C25.9456 7.68699 25.6253 7.19494 25.2092 6.79099C24.8061 6.37345 24.3139 6.05255 23.7692 5.85233C23.1158 5.59899 22.4145 5.45899 21.3718 5.41099C19.8998 5.34166 19.3852 5.33366 15.9998 5.33366ZM15.9998 2.66699C19.6225 2.66699 20.0745 2.68033 21.4958 2.74699C22.9158 2.81366 23.8825 3.03633 24.7332 3.36699C25.6132 3.70566 26.3545 4.16433 27.0958 4.90433C27.7738 5.57085 28.2984 6.37711 28.6332 7.26699C28.9625 8.11633 29.1865 9.08433 29.2532 10.5043C29.3158 11.9257 29.3332 12.3777 29.3332 16.0003C29.3332 19.623 29.3198 20.075 29.2532 21.4963C29.1865 22.9163 28.9625 23.883 28.6332 24.7337C28.2994 25.624 27.7747 26.4305 27.0958 27.0963C26.4291 27.7741 25.6229 28.2987 24.7332 28.6337C23.8838 28.963 22.9158 29.187 21.4958 29.2537C20.0745 29.3163 19.6225 29.3337 15.9998 29.3337C12.3772 29.3337 11.9252 29.3203 10.5038 29.2537C9.08384 29.187 8.11717 28.963 7.2665 28.6337C6.37627 28.2996 5.56987 27.7749 4.90384 27.0963C4.22571 26.4299 3.70108 25.6236 3.3665 24.7337C3.03584 23.8843 2.81317 22.9163 2.7465 21.4963C2.68384 20.075 2.6665 19.623 2.6665 16.0003C2.6665 12.3777 2.67984 11.9257 2.7465 10.5043C2.81317 9.08299 3.03584 8.11766 3.3665 7.26699C3.70015 6.37656 4.22491 5.57009 4.90384 4.90433C5.57007 4.22597 6.37641 3.7013 7.2665 3.36699C8.11717 3.03633 9.0825 2.81366 10.5038 2.74699C11.9252 2.68433 12.3772 2.66699 15.9998 2.66699Z" fill="white"/>
</svg>
