<svg width="18" height="18" viewBox="0 0 18 18" fill="none" xmlns="http://www.w3.org/2000/svg">
<g clip-path="url(#clip0_1224_430)">
<path d="M9.06441 -0.00683594C5.37469 -0.00683594 2.25 3.13557 2.25 6.8582C2.25 10.7563 5.87166 14.7428 8.30784 17.5446C8.31712 17.5558 8.71089 17.9932 9.19603 17.9932H9.23908C9.72424 17.9932 10.1152 17.5558 10.125 17.5446C12.4113 14.9163 15.75 10.5828 15.75 6.8582C15.75 3.13557 13.3127 -0.00683594 9.06441 -0.00683594ZM9.28997 16.79C9.27028 16.8097 9.24158 16.8316 9.21626 16.8499C9.19039 16.8322 9.16226 16.8097 9.14147 16.79L8.84726 16.4517C6.53766 13.802 3.375 10.1736 3.375 6.8582C3.375 3.74673 5.9805 1.11788 9.06441 1.11788C12.9057 1.11788 14.625 4.0007 14.625 6.8582C14.625 9.3751 12.8298 12.7169 9.28997 16.79ZM9.01967 3.39938C7.15583 3.39938 5.64467 4.91054 5.64467 6.77438C5.64467 8.63823 7.15583 10.1494 9.01967 10.1494C10.8835 10.1494 12.3947 8.63823 12.3947 6.77438C12.3947 4.91054 10.8835 3.39938 9.01967 3.39938ZM9.01967 9.02438C7.77908 9.02438 6.74378 7.99051 6.74378 6.74963C6.74378 5.50904 7.75318 4.49963 8.99378 4.49963C10.2352 4.49963 11.2438 5.50904 11.2438 6.74963C11.2443 7.99051 10.2611 9.02438 9.01967 9.02438Z" fill="white" stroke="white" stroke-width="0.3"/>
</g>
<defs>
<clipPath id="clip0_1224_430">
<rect width="18" height="18" fill="white"/>
</clipPath>
</defs>
</svg>
