<svg width="18" height="18" viewBox="0 0 18 18" fill="none" xmlns="http://www.w3.org/2000/svg">
<path d="M15 11.625C14.0625 11.625 13.1625 11.475 12.3225 11.1975C12.1906 11.1555 12.0498 11.1501 11.9151 11.1818C11.7804 11.2135 11.6568 11.2811 11.5575 11.3775L9.9075 13.0275C7.77839 11.9447 6.04783 10.2141 4.965 8.085L6.615 6.4275C6.71434 6.33326 6.78474 6.21264 6.81795 6.0798C6.85116 5.94696 6.8458 5.8074 6.8025 5.6775C6.51799 4.81354 6.37366 3.9096 6.375 3C6.375 2.5875 6.0375 2.25 5.625 2.25H3C2.5875 2.25 2.25 2.5875 2.25 3C2.25 10.0425 7.9575 15.75 15 15.75C15.4125 15.75 15.75 15.4125 15.75 15V12.375C15.75 11.9625 15.4125 11.625 15 11.625ZM14.25 9H15.75C15.75 7.20979 15.0388 5.4929 13.773 4.22703C12.5071 2.96116 10.7902 2.25 9 2.25V3.75C11.9025 3.75 14.25 6.0975 14.25 9ZM11.25 9H12.75C12.75 6.93 11.07 5.25 9 5.25V6.75C10.245 6.75 11.25 7.755 11.25 9Z" fill="white"/>
</svg>
