<svg width="10" height="14" viewBox="0 0 10 14" fill="none" xmlns="http://www.w3.org/2000/svg">
<path d="M4.66667 0C2.08667 0 0 2.08667 0 4.66667C0 8.16667 4.66667 13.3333 4.66667 13.3333C4.66667 13.3333 9.33333 8.16667 9.33333 4.66667C9.33333 2.08667 7.24667 0 4.66667 0ZM1.33333 4.66667C1.33333 2.82667 2.82667 1.33333 4.66667 1.33333C6.50667 1.33333 8 2.82667 8 4.66667C8 6.58667 6.08 9.46 4.66667 11.2533C3.28 9.47333 1.33333 6.56667 1.33333 4.66667Z" fill="#FF6634"/>
<path d="M4.66667 6.33333C5.58714 6.33333 6.33333 5.58714 6.33333 4.66667C6.33333 3.74619 5.58714 3 4.66667 3C3.74619 3 3 3.74619 3 4.66667C3 5.58714 3.74619 6.33333 4.66667 6.33333Z" fill="#FF6634"/>
</svg>
