<svg width="169" height="169" viewBox="0 0 169 169" fill="none" xmlns="http://www.w3.org/2000/svg">
<path d="M66.8955 116.187L116.187 84.5L66.8955 52.8125V116.187ZM84.4997 154.917C74.7587 154.917 65.6045 153.067 57.0372 149.368C48.4698 145.669 41.0174 140.653 34.6799 134.32C28.3424 127.982 23.3264 120.53 19.6318 111.962C15.9373 103.395 14.0877 94.241 14.083 84.5C14.083 74.759 15.9326 65.6049 19.6318 57.0375C23.3311 48.4701 28.3471 41.0177 34.6799 34.6802C41.0174 28.3427 48.4698 23.3267 57.0372 19.6322C65.6045 15.9376 74.7587 14.088 84.4997 14.0833C94.2406 14.0833 103.395 15.9329 111.962 19.6322C120.53 23.3314 127.982 28.3474 134.319 34.6802C140.657 41.0177 145.675 48.4701 149.375 57.0375C153.074 65.6049 154.921 74.759 154.916 84.5C154.916 94.241 153.067 103.395 149.368 111.962C145.668 120.53 140.652 127.982 134.319 134.32C127.982 140.657 120.53 145.676 111.962 149.375C103.395 153.074 94.2406 154.921 84.4997 154.917Z" fill="white"/>
</svg>
